<?xml version="1.0" encoding="UTF-8" standalone="no"?> <svg id="object" xmlns="http://www.w3.org/2000/svg" viewBox="0 0 100 100"><g id="_42" data-name="42"><path d="M89.312,74.3h-.8a15.6,15.6,0,0,0,2.606-7.756,5.643,5.643,0,0,0-1.38-3.669,4.734,4.734,0,0,0,1.38-3.336V59.3a4.832,4.832,0,0,0-2.21-4.052,5.682,5.682,0,0,0,.645-8.4,6.716,6.716,0,0,0,5.1-6.507A32.522,32.522,0,0,0,62.168,7.854H37.832A32.522,32.522,0,0,0,5.347,40.339a6.716,6.716,0,0,0,5.1,6.507,5.682,5.682,0,0,0,.645,8.4A4.832,4.832,0,0,0,8.884,59.3v.242a4.74,4.74,0,0,0,1.363,3.328,5.687,5.687,0,0,0-1.363,3.677c0,.061.256,5.983,1.456,7.791a5.333,5.333,0,0,0-4.993,5.306,12.515,12.515,0,0,0,12.5,12.5h64.3a12.515,12.515,0,0,0,12.5-12.5A5.347,5.347,0,0,0,89.312,74.3ZM7.347,40.339A30.52,30.52,0,0,1,37.832,9.854H62.168A30.52,30.52,0,0,1,92.653,40.339a4.716,4.716,0,0,1-4.711,4.71H12.058A4.716,4.716,0,0,1,7.347,40.339ZM10.884,59.3a2.843,2.843,0,0,1,2.84-2.839H86.276a2.843,2.843,0,0,1,2.84,2.839v.242a2.833,2.833,0,0,1-1.424,2.417,3,3,0,0,1-.729.333,12.15,12.15,0,0,0-4.173,2.478c-1.645,1.328-3.066,2.475-6.051,2.475s-4.42-1.147-6.068-2.475a10.634,10.634,0,0,0-14.631,0c-1.646,1.326-3.067,2.471-6.054,2.471s-4.408-1.146-6.053-2.473a10.619,10.619,0,0,0-14.617,0c-1.649,1.328-3.072,2.475-6.068,2.475S18.84,66.1,17.2,64.768a12.154,12.154,0,0,0-4.161-2.476,2.956,2.956,0,0,1-.709-.324c-.013-.008-.027-.014-.041-.022a2.8,2.8,0,0,1-1.4-2.4ZM82.152,90.146h-64.3a10.513,10.513,0,0,1-10.5-10.5A3.345,3.345,0,0,1,10.688,76.3H89.312a3.345,3.345,0,0,1,3.341,3.341A10.513,10.513,0,0,1,82.152,90.146ZM37.337,19.652a1,1,0,0,1,0-1.414L40.2,15.374a1,1,0,1,1,1.414,1.414l-2.865,2.864a1,1,0,0,1-1.414,0Zm10.524,8.507a1,1,0,0,1,0-1.414l2.864-2.865a1,1,0,0,1,1.414,1.414l-2.864,2.865a1,1,0,0,1-1.414,0Zm10.523-8.507a1,1,0,0,1,0-1.414l2.865-2.864a1,1,0,1,1,1.414,1.414L59.8,19.652a1,1,0,0,1-1.414,0Z"/></g></svg>